<svg width="48" height="48" viewBox="0 0 48 48" fill="none" xmlns="http://www.w3.org/2000/svg">
<path d="M15.838 41.8788C32.4414 41.8788 41.523 28.1222 41.523 16.1938C41.523 15.8022 41.523 15.4128 41.4966 15.0278C43.2636 13.7486 44.7886 12.1648 46 10.3506C44.3523 11.081 42.6044 11.5601 40.8146 11.7718C42.6992 10.6433 44.1097 8.86858 44.7834 6.77781C43.0117 7.82916 41.0736 8.57022 39.0524 8.96901C37.6915 7.5209 35.8911 6.56185 33.93 6.24036C31.9689 5.91888 29.9565 6.25289 28.2045 7.19069C26.4524 8.12848 25.0584 9.61774 24.2382 11.4279C23.4181 13.238 23.2176 15.268 23.6678 17.2036C20.0787 17.0237 16.5675 16.0911 13.3622 14.4663C10.1569 12.8415 7.32912 10.5608 5.0624 7.77221C3.9081 9.75926 3.5545 12.1115 4.07358 14.3501C4.59266 16.5887 5.94541 18.5453 7.8564 19.8216C6.42037 19.78 5.01539 19.3937 3.76 18.6952V18.8096C3.76086 20.8937 4.48247 22.9133 5.80247 24.526C7.12248 26.1387 8.95963 27.2453 11.0024 27.658C9.67318 28.0204 8.27857 28.0731 6.9258 27.812C7.50255 29.6061 8.62569 31.1749 10.1381 32.2992C11.6505 33.4234 13.4765 34.0468 15.3606 34.082C13.4887 35.5529 11.3451 36.6402 9.0526 37.282C6.76007 37.9237 4.36351 38.1072 2 37.822C6.12853 40.4715 10.9324 41.8768 15.838 41.87" fill="#CBD5E1"/>
</svg>
